<?xml version="1.0" encoding="utf-8"?>
<!-- Generator: Adobe Illustrator 16.0.0, SVG Export Plug-In . SVG Version: 6.00 Build 0)  -->
<!DOCTYPE svg PUBLIC "-//W3C//DTD SVG 1.1//EN" "http://www.w3.org/Graphics/SVG/1.1/DTD/svg11.dtd">
<svg version="1.1" id="Capa_1" xmlns="http://www.w3.org/2000/svg" xmlns:xlink="http://www.w3.org/1999/xlink" x="0px" y="0px"
	 width="40px" height="40px" viewBox="0 0 40 40" style="enable-background:new 0 0 40 40;" xml:space="preserve">
<path class="st0" fill="#fff" d="M20.2,0.5C9.4,0.5,0.7,9.2,0.7,20s8.7,19.5,19.5,19.5c10.8,0,19.5-8.7,19.5-19.5S30.9,0.5,20.2,0.5z M20.2,2.5
	c9.7,0,17.5,7.9,17.5,17.5c0,4.2-1.5,8-3.9,11c-2.1-4-5.3-6.9-9-8.2c0.1,0,0.2,0,0.3-0.1c0.2-0.1,0.3-0.2,0.3-0.4l-0.2-0.7
	c-0.1-0.3-0.2-0.4-0.4-0.3c-1.8,0.4-3.3,0.6-4.5,0.6c-2.6,0-4.5-0.5-5.7-1.4c-1.2-0.9-1.8-2.4-1.8-4.5c0-2.2,0.7-4,2.1-5.2
	c1.4-1.3,3.4-1.9,5.8-1.9c2.3,0,4.1,0.5,5.2,1.4s1.7,2,1.7,3.6c0,2.9-1,4.1-3,4.1h-0.4l1.1-6.3c0.1-0.3-0.1-0.4-0.4-0.5
	c-1.1-0.5-2.4-0.7-3.8-0.7c-2,0-3.5,0.6-4.5,1.7c-1,1.1-1.4,2.5-1.4,4.2c0,1.2,0.3,2.2,1,2.8c0.7,0.7,1.6,1,2.8,1
	c1.3,0,2.4-0.5,3.1-1.5l0.2,1c0.1,0.3,0.3,0.4,0.8,0.4h1.4c1.5,0,2.7-0.5,3.6-1.6c0.9-1.1,1.4-2.5,1.4-4.3c0-2-0.7-3.7-2.2-4.9
	c-1.5-1.3-3.6-1.9-6.4-1.9c-2.9,0-5.3,0.8-7.1,2.4S11,13.4,11,16c0,3.5,1.5,5.7,4.6,6.8c-3.7,1.3-6.9,4.2-9,8.2
	c-2.4-3-3.9-6.8-3.9-11C2.6,10.3,10.5,2.5,20.2,2.5z M22.3,13l-0.5,2.7c-0.3,1.4-1,2.2-2.2,2.2c-1,0-1.6-0.6-1.6-1.9
	c0-0.9,0.2-1.7,0.7-2.3c0.5-0.6,1.2-0.9,2.1-0.9C21.4,12.8,21.9,12.8,22.3,13z M7.9,32.6c2.6-5.4,7.2-8.7,12.2-8.7
	c5,0,9.7,3.3,12.2,8.7c-3.2,3.1-7.5,5-12.2,5S11.1,35.6,7.9,32.6z"/>
</svg>
