<?xml version="1.0" encoding="utf-8"?>
<!-- Generator: Adobe Illustrator 16.0.0, SVG Export Plug-In . SVG Version: 6.00 Build 0)  -->
<!DOCTYPE svg PUBLIC "-//W3C//DTD SVG 1.1//EN" "http://www.w3.org/Graphics/SVG/1.1/DTD/svg11.dtd">
<svg version="1.1" id="arte" xmlns="http://www.w3.org/2000/svg" xmlns:xlink="http://www.w3.org/1999/xlink" x="0px" y="0px"
	 width="100px" height="100px" viewBox="0 0 100 100" style="enable-background:new 0 0 100 100;" xml:space="preserve">
<g>
	<path fill="#fff" d="M50,99C23,99,1,77,1,50S23,1,50,1s49,22,49,49S77,99,50,99z M50,5C25.2,5,5,25.2,5,50s20.2,45,45,45
		s45-20.2,45-45S74.8,5,50,5z"/>
</g>
<path fill="#fff" d="M69.9,32.5h-36c-2.8,0-5.4,2.1-5.4,4.9v22v14l9.4-8.9h32c2.8,0,4.6-2.4,4.6-5.1v-22
	C74.5,34.6,72.7,32.5,69.9,32.5z"/>
</svg>
