<?xml version="1.0" encoding="utf-8"?>
<!-- Generator: Adobe Illustrator 16.0.0, SVG Export Plug-In . SVG Version: 6.00 Build 0)  -->
<!DOCTYPE svg PUBLIC "-//W3C//DTD SVG 1.1//EN" "http://www.w3.org/Graphics/SVG/1.1/DTD/svg11.dtd">
<svg version="1.1" id="Capa_1" xmlns="http://www.w3.org/2000/svg" xmlns:xlink="http://www.w3.org/1999/xlink" x="0px" y="0px"
	 width="40px" height="40px" viewBox="0 0 40 40" style="enable-background:new 0 0 40 40;" xml:space="preserve">
<g>
	<path class="st0" fill="#fff" d="M39.2,14.1c-4.5-4.4-4.5-4.4-4.9-4.4c-0.3,0-0.5,0.1-0.7,0.3c-0.9,0.9-2.5,0.9-3.5,0c-1-1-1-2.5,0-3.5
		c0.7-0.7,0.7-0.7-4.2-5.7c-0.2-0.2-0.4-0.3-0.7-0.3c-0.3,0-0.5,0-0.7,0.2L0.9,24.5c-0.2,0.2-0.4,0.4-0.4,0.7c0,0.3,0.1,0.5,0.2,0.7
		L5,30.2c0.4,0.4,1,0.4,1.4,0c0.9-0.9,2.5-0.9,3.4,0c0.9,0.9,0.9,2.5,0,3.4c-0.4,0.4-0.4,1,0,1.4l4.2,4.2c0.2,0.2,0.4,0.3,0.7,0.3
		s0.5-0.1,0.7-0.3l23.8-23.8c0.2-0.2,0.3-0.4,0.3-0.7C39.5,14.5,39.4,14.3,39.2,14.1z M31.7,20.2l-1-1c-0.4-0.4-1-0.4-1.4,0
		s-0.4,1,0,1.4l1,1L14.8,37.1l-2.9-2.9c1-1.7,0.8-3.9-0.6-5.4c-0.8-0.8-1.9-1.3-3.1-1.3c-0.8,0-1.6,0.2-2.3,0.6l-3-3L18.4,9.6l1,1
		c0.2,0.2,0.4,0.3,0.7,0.3s0.5-0.1,0.7-0.3c0.4-0.4,0.4-1,0-1.4l-1-1l5.4-5.4c1,1,2.2,2.3,2.9,3c-1.1,1.7-0.9,4,0.6,5.5
		c0.8,0.8,1.9,1.3,3.1,1.3c0.9,0,1.7-0.2,2.4-0.7c0.7,0.7,1.9,1.9,2.9,2.9L31.7,20.2z"/>
	<path class="st0" fill="#fff" d="M24.1,12.6c-0.4-0.4-1-0.4-1.4,0s-0.4,1,0,1.4l3.3,3.3c0.2,0.2,0.4,0.3,0.7,0.3c0.3,0,0.5-0.1,0.7-0.3
		c0.4-0.4,0.4-1,0-1.4L24.1,12.6z"/>
</g>
</svg>
