<?xml version="1.0" encoding="utf-8"?>
<!-- Generator: Adobe Illustrator 16.0.0, SVG Export Plug-In . SVG Version: 6.00 Build 0)  -->
<!DOCTYPE svg PUBLIC "-//W3C//DTD SVG 1.1//EN" "http://www.w3.org/Graphics/SVG/1.1/DTD/svg11.dtd">
<svg version="1.1" id="arte" xmlns="http://www.w3.org/2000/svg" xmlns:xlink="http://www.w3.org/1999/xlink" x="0px" y="0px"
	 width="100px" height="100px" viewBox="0 0 100 100" style="enable-background:new 0 0 100 100;" xml:space="preserve">
<g>
	<path fill="#fff" d="M50,99C23,99,1,77,1,50S23,1,50,1s49,22,49,49S77,99,50,99z M50,5C25.2,5,5,25.2,5,50s20.2,45,45,45
		s45-20.2,45-45S74.8,5,50,5z"/>
</g>
<path fill="#fff" d="M70.5,24.5c0-2.8-2.2-5-5-5h-32c-2.8,0-5,2.2-5,5v52c0,2.8,2.2,5,5,5h32c2.8,0,5-2.2,5-5V24.5z M53.6,76.5h-7.2
	c-0.7,0-1.2-0.8-1.2-1.5c0-0.7,0.5-1.5,1.2-1.5h7.2c0.7,0,1.2,0.8,1.2,1.5C54.8,75.7,54.3,76.5,53.6,76.5z M66.5,67.2
	c-2-0.9-5.4-2.3-5.9-3.1l-3.3,0.1l-0.4-2.8c1.4-1.7,2.4-4.8,2.7-6.2c1.9-1.7,2.1-6.8,2.1-6.8c0-1.1-0.3-2.1-0.9-2.9
	c0.4-0.9,0.8-2,0.9-3.3l0.5-0.5c0.3-0.3,0.5-0.7,0.5-1.1c0-4.5-4.3-9.4-11.4-9.4c-3.8,0-5.8,1.3-6.6,2.1c-2.1,0.6-4.7,3.2-4.7,6.4
	l0,1c0,2.1,0,3.7,0.2,4.7c-0.8,0.8-1.1,2.1-1.1,3.3c0,0.1,0.1,5.4,2.1,7.1c0.3,1.5,1.2,4,2.6,5.7l-0.5,2.8l-2.5-0.4
	c-0.6,0.9-4.2,3.1-8.2,4.1V24.2c0-0.6,0.9-0.7,1.5-0.7h32c0.6,0,0.5,0.1,0.5,0.7V67.2z"/>
</svg>
