<?xml version="1.0" encoding="utf-8"?>
<!-- Generator: Adobe Illustrator 16.0.0, SVG Export Plug-In . SVG Version: 6.00 Build 0)  -->
<!DOCTYPE svg PUBLIC "-//W3C//DTD SVG 1.1//EN" "http://www.w3.org/Graphics/SVG/1.1/DTD/svg11.dtd">
<svg version="1.1" id="Capa_1" xmlns="http://www.w3.org/2000/svg" xmlns:xlink="http://www.w3.org/1999/xlink" x="0px" y="0px"
	 width="30px" height="30px" viewBox="0 0 30 30" style="enable-background:new 0 0 30 30;" xml:space="preserve">
<path class="st0" fill="#7c4d95" d="M26.6,9.8c0,2.7-0.7,5.3-2,7.9c-1.4,2.7-3.3,4.8-5.7,6.4c-2.7,1.8-5.8,2.7-9.2,2.7c-3.3,0-6.4-0.9-9.1-2.7
	c0.4,0,0.9,0.1,1.4,0.1c2.8,0,5.2-0.8,7.4-2.5c-1.3,0-2.5-0.4-3.5-1.2c-1-0.8-1.7-1.7-2.1-2.9c0.4,0,0.7,0.1,1.1,0.1
	c0.5,0,1.1-0.1,1.6-0.2c-1.4-0.3-2.5-1-3.4-2.1c-0.9-1.1-1.4-2.3-1.4-3.7v-0.1c0.8,0.5,1.7,0.8,2.7,0.8c-0.8-0.6-1.4-1.3-1.9-2.2
	C1.9,9.3,1.7,8.3,1.7,7.3s0.3-2,0.8-3C4,6.1,5.8,7.6,7.9,8.7c2.1,1.1,4.4,1.7,6.8,1.8c-0.1-0.5-0.1-0.9-0.1-1.4c0-1.1,0.3-2,0.8-3
	C16,5.3,16.7,4.5,17.6,4c0.9-0.5,1.9-0.8,2.9-0.8c0.9,0,1.7,0.2,2.4,0.5c0.7,0.3,1.4,0.8,2,1.4c1.4-0.3,2.6-0.7,3.8-1.4
	c-0.5,1.4-1.3,2.5-2.6,3.3c1.1-0.2,2.3-0.5,3.4-1c-0.8,1.2-1.8,2.2-3,3.1C26.5,9.3,26.6,9.5,26.6,9.8z"/>
</svg>
