<?xml version="1.0" encoding="utf-8"?>
<!-- Generator: Adobe Illustrator 16.0.0, SVG Export Plug-In . SVG Version: 6.00 Build 0)  -->
<!DOCTYPE svg PUBLIC "-//W3C//DTD SVG 1.1//EN" "http://www.w3.org/Graphics/SVG/1.1/DTD/svg11.dtd">
<svg version="1.1" id="arte" xmlns="http://www.w3.org/2000/svg" xmlns:xlink="http://www.w3.org/1999/xlink" x="0px" y="0px"
	 width="100px" height="100px" viewBox="0 0 100 100" style="enable-background:new 0 0 100 100;" xml:space="preserve">
<g>
	<g>
		<path fill="#fff" d="M50,99C23,99,1,77,1,50S23,1,50,1s49,22,49,49S77,99,50,99z M50,5C25.2,5,5,25.2,5,50s20.2,45,45,45
			s45-20.2,45-45S74.8,5,50,5z"/>
	</g>
	<g>
		<g id="backup_1_">
			<path fill="#fff" d="M67.8,45.2C66.1,37,58.9,30.8,50,30.8c-7,0-13,3.8-15.8,9.6c-7.4,1-13,7-13,14.4c0,7.9,6.5,14.4,14.4,14.4
				h31.2c6.7,0,12-5.3,12-12C78.8,51,73.8,45.7,67.8,45.2z M54.8,52.4V62h-9.6v-9.6H38l12-12l12,12H54.8z"/>
		</g>
	</g>
</g>
</svg>
