<?xml version="1.0" encoding="utf-8"?>
<!-- Generator: Adobe Illustrator 16.0.0, SVG Export Plug-In . SVG Version: 6.00 Build 0)  -->
<!DOCTYPE svg PUBLIC "-//W3C//DTD SVG 1.1//EN" "http://www.w3.org/Graphics/SVG/1.1/DTD/svg11.dtd">
<svg version="1.1" id="arte" xmlns="http://www.w3.org/2000/svg" xmlns:xlink="http://www.w3.org/1999/xlink" x="0px" y="0px"
	 width="100px" height="100px" viewBox="0 0 100 100" style="enable-background:new 0 0 100 100;" xml:space="preserve">
<path fill="#fff" class="st0" d="M76.7,50.1c0-4.6,2.5-8.7,6.3-10.8l-3.5-6.2l-3.6-6.3c-1.8,1-3.9,2.9-6.2,2.9c-6.9,0-12.5-5.2-12.5-11.2H42.9
	c0,6-5.6,11.2-12.5,11.2c-2.3,0-4.4-1.2-6.2-2.3l-7.1,12.1c3.8,2.1,6.3,6,6.3,10.7c0,4.6-2.5,8.6-6.3,10.7l7.1,12.4
	c1.8-1.1,3.9-1.5,6.2-1.5c6.9,0,12.5,7.6,12.5,12.6h14.3c0-5,5.6-12.6,12.5-12.6c2.3,0,4.4,0.5,6.2,1.5l7.1-12.5
	C79.2,58.8,76.7,54.7,76.7,50.1z M50,36.4c4.1,0,7.9,1.8,10.4,4.7c2.1,2.4,3.3,5.5,3.3,9c0,7.6-6.1,13.7-13.7,13.7
	c-6,0-11-3.8-12.9-9.1c-0.5-1.4-0.8-3-0.8-4.6C36.3,42.5,42.4,36.4,50,36.4z"/>
</svg>
