<?xml version="1.0" encoding="utf-8"?>
<!-- Generator: Adobe Illustrator 16.0.0, SVG Export Plug-In . SVG Version: 6.00 Build 0)  -->
<!DOCTYPE svg PUBLIC "-//W3C//DTD SVG 1.1//EN" "http://www.w3.org/Graphics/SVG/1.1/DTD/svg11.dtd">
<svg version="1.1" id="arte" xmlns="http://www.w3.org/2000/svg" xmlns:xlink="http://www.w3.org/1999/xlink" x="0px" y="0px"
	 width="100px" height="100px" viewBox="0 0 100 100" style="enable-background:new 0 0 100 100;" xml:space="preserve">
<g>
	<g>
		<path fill="#fff" d="M50,99C23,99,1,77,1,50S23,1,50,1s49,22,49,49S77,99,50,99z M50,5C25.2,5,5,25.2,5,50s20.2,45,45,45
			s45-20.2,45-45S74.8,5,50,5z"/>
	</g>
	<g>
		<g>
			<path fill="#fff" d="M36.5,78.5H25.2c-1.8,0-3.7-1.9-3.7-3.7V62.5c0-1.1,0.9-2,2-2s2,0.9,2,2v12c0,0,0,0,0,0h11c1.1,0,2,0.9,2,2
				S37.6,78.5,36.5,78.5z"/>
		</g>
	</g>
	<g>
		<g>
			<path fill="#fff" d="M75.5,39.5c-1.1,0-2-0.9-2-2v-11h-11c-1.1,0-2-0.9-2-2s0.9-2,2-2h12.3c1.8,0,2.7,0.9,2.7,2.7v12.3
				C77.5,38.6,76.6,39.5,75.5,39.5z"/>
		</g>
	</g>
	<g>
		<g>
			<path fill="#fff" d="M23.5,39.5c-1.1,0-2-0.9-2-2V25.2c0-0.8,0.4-2.7,3.7-2.7h11.3c1.1,0,2,0.9,2,2s-0.9,2-2,2h-11v11
				C25.5,38.6,24.6,39.5,23.5,39.5z"/>
		</g>
	</g>
	<g>
		<g>
			<path fill="#fff" d="M74.8,78.5H62.5c-1.1,0-2-0.9-2-2s0.9-2,2-2h11v-12c0-1.1,0.9-2,2-2s2,0.9,2,2v12.3
				C77.5,78.1,75.6,78.5,74.8,78.5z"/>
		</g>
	</g>
	<g>
		<g>
			<path fill="#fff" d="M50,31.9c-4.6,0-8.4,3.8-8.4,8.4c0,4.6,3.8,8.4,8.4,8.4c4.6,0,8.4-3.8,8.4-8.4C58.4,35.7,54.6,31.9,50,31.9z
				"/>
		</g>
	</g>
</g>
</svg>
