<?xml version="1.0" encoding="utf-8"?>
<!-- Generator: Adobe Illustrator 16.0.0, SVG Export Plug-In . SVG Version: 6.00 Build 0)  -->
<!DOCTYPE svg PUBLIC "-//W3C//DTD SVG 1.1//EN" "http://www.w3.org/Graphics/SVG/1.1/DTD/svg11.dtd">
<svg version="1.1" id="arte" xmlns="http://www.w3.org/2000/svg" xmlns:xlink="http://www.w3.org/1999/xlink" x="0px" y="0px"
	 width="100px" height="100px" viewBox="0 0 100 100" style="enable-background:new 0 0 100 100;" xml:space="preserve">
<g>
	<path fill="#ff0000" d="M50,99C23,99,1,77,1,50S23,1,50,1s49,22,49,49S77,99,50,99z M50,5C25.2,5,5,25.2,5,50s20.2,45,45,45
		s45-20.2,45-45S74.8,5,50,5z"/>
</g>
<path fill="#ff0000" d="M66,48c0-1.1-0.9-2-2-2s-2,0.9-2,2c0,6.6-5.4,12-12,12s-12-5.4-12-12c0-1.1-0.9-2-2-2s-2,0.9-2,2
	c0,8,5.9,14.6,13.5,15.8v14.7c0,1.1,0.9,2,2,2s2-0.9,2-2V63.9C59.6,63.2,66,56.3,66,48z"/>
<path fill="#ff0000" d="M57.5,29.3c0-4.6-3.2-7.8-7.5-7.8s-7.5,3.2-7.5,7.8c0,0.5,0,16.9,0,17.5c0,4.6,3.2,7.8,7.5,7.8s7.5-3.2,7.5-7.8
	C57.5,46.2,57.5,29.8,57.5,29.3z"/>
</svg>
