<?xml version="1.0" encoding="utf-8"?>
<!-- Generator: Adobe Illustrator 16.0.0, SVG Export Plug-In . SVG Version: 6.00 Build 0)  -->
<!DOCTYPE svg PUBLIC "-//W3C//DTD SVG 1.1//EN" "http://www.w3.org/Graphics/SVG/1.1/DTD/svg11.dtd">
<svg version="1.1" id="arte" xmlns="http://www.w3.org/2000/svg" xmlns:xlink="http://www.w3.org/1999/xlink" x="0px" y="0px"
	 width="100px" height="100px" viewBox="0 0 100 100" style="enable-background:new 0 0 100 100;" xml:space="preserve">
<g>
	<path fill="#fff" d="M35.5,81.5H23.2c-1.8,0-4.7-2.9-4.7-4.7V63.5c0-1.1,0.9-2,2-2s2,0.9,2,2v13c1,0,1,0,1,1h12c1.1,0,2,0.9,2,2
		S36.6,81.5,35.5,81.5z"/>
</g>
<g>
	<path fill="#fff" d="M76.5,38.5c-1.1,0-2-0.9-2-2v-11h-11c-1.1,0-2-0.9-2-2s0.9-2,2-2h13.3c1.8,0,1.7-0.1,1.7,1.7v13.3
		C78.5,37.6,77.6,38.5,76.5,38.5z"/>
</g>
<g>
	<path fill="#fff" d="M20.5,38.5c-1.1,0-2-0.9-2-2V23.2c0-0.8,1.4-1.7,4.7-1.7h12.3c1.1,0,2,0.9,2,2s-0.9,2-2,2h-13v11
		C22.5,37.6,21.6,38.5,20.5,38.5z"/>
</g>
<g>
	<path fill="#fff" d="M76.8,81.5H63.5c-1.1,0-2-0.9-2-2s0.9-2,2-2h11v-14c0-1.1,0.9-2,2-2s2,0.9,2,2v13.3
		C78.5,80.1,77.6,81.5,76.8,81.5z"/>
</g>
</svg>
