<?xml version="1.0" encoding="utf-8"?>
<!-- Generator: Adobe Illustrator 16.0.0, SVG Export Plug-In . SVG Version: 6.00 Build 0)  -->
<!DOCTYPE svg PUBLIC "-//W3C//DTD SVG 1.1//EN" "http://www.w3.org/Graphics/SVG/1.1/DTD/svg11.dtd">
<svg version="1.1" id="Capa_1" xmlns="http://www.w3.org/2000/svg" xmlns:xlink="http://www.w3.org/1999/xlink" x="0px" y="0px"
	 width="40px" height="40px" viewBox="0 0 40 40" style="enable-background:new 0 0 40 40;" xml:space="preserve">
<path class="st0" fill="#fff" d="M32.7,7.1C30,4.4,26.4,2.9,22.6,2.9c-3.8,0-7.4,1.5-10.2,4.2C7,12.5,6.8,21.1,11.7,26.7l-8.7,8.7
	c-0.4,0.4-0.4,1,0,1.4c0.2,0.2,0.5,0.3,0.7,0.3s0.5-0.1,0.7-0.3l8.7-8.7c2.6,2.3,5.9,3.5,9.4,3.5c3.8,0,7.4-1.5,10.2-4.2
	s4.2-6.3,4.2-10.2S35.4,9.8,32.7,7.1z M31.3,26c-2.3,2.3-5.4,3.6-8.7,3.6c-3.1,0-6.1-1.2-8.4-3.3c0-0.2-0.1-0.3-0.2-0.4
	s-0.3-0.2-0.4-0.2C9,20.8,9.1,13.3,13.8,8.5c2.3-2.3,5.4-3.6,8.7-3.6s6.4,1.3,8.7,3.6c2.3,2.3,3.6,5.4,3.6,8.7S33.6,23.7,31.3,26z"
	/>
</svg>
