<?xml version="1.0" encoding="utf-8"?>
<!-- Generator: Adobe Illustrator 16.0.0, SVG Export Plug-In . SVG Version: 6.00 Build 0)  -->
<!DOCTYPE svg PUBLIC "-//W3C//DTD SVG 1.1//EN" "http://www.w3.org/Graphics/SVG/1.1/DTD/svg11.dtd">
<svg version="1.1" id="Capa_1" xmlns="http://www.w3.org/2000/svg" xmlns:xlink="http://www.w3.org/1999/xlink" x="0px" y="0px"
	 width="30px" height="30px" viewBox="0 0 30 30" style="enable-background:new 0 0 30 30;" xml:space="preserve">
<path class="st0" fill="#7c4d95" d="M28.6,9.4c0,1.1,0.1,3,0.1,5.6c0,2.6,0,4.5-0.1,5.6c-0.1,1.1-0.2,2.1-0.5,3c-0.4,1-0.9,1.9-1.7,2.6
	c-0.7,0.7-1.6,1.3-2.6,1.7c-0.8,0.3-1.8,0.5-3,0.5c-1.1,0.1-3,0.1-5.6,0.1c-2.6,0-4.5,0-5.6-0.1c-1.1-0.1-2.1-0.3-3-0.6
	c-1-0.3-1.9-0.9-2.6-1.6c-0.7-0.7-1.3-1.6-1.7-2.6c-0.3-0.8-0.5-1.8-0.5-3c-0.1-1.1-0.1-3-0.1-5.6c0-2.6,0-4.5,0.1-5.6
	c0.1-1.1,0.2-2.1,0.5-3c0.4-1,0.9-1.9,1.7-2.6C4.6,3,5.5,2.5,6.5,2.1c0.8-0.3,1.8-0.5,3-0.5c1.1-0.1,3-0.1,5.6-0.1
	c2.6,0,4.5,0,5.6,0.1c1.1,0.1,2.1,0.2,3,0.5c1,0.4,1.9,0.9,2.6,1.7c0.7,0.7,1.3,1.6,1.7,2.6C28.3,7.2,28.5,8.2,28.6,9.4z M25.7,23
	c0.2-0.7,0.4-1.8,0.5-3.3c0-0.9,0.1-2.1,0.1-3.7V14c0-1.6,0-2.9-0.1-3.7c-0.1-1.5-0.2-2.6-0.5-3.3c-0.5-1.2-1.3-2.1-2.6-2.6
	c-0.6-0.2-1.7-0.4-3.3-0.5c-0.9,0-2.1-0.1-3.7-0.1h-1.9c-1.6,0-2.9,0-3.7,0.1C9,4.1,7.9,4.2,7.2,4.5C5.9,4.9,5.1,5.8,4.6,7
	c-0.2,0.6-0.4,1.7-0.5,3.3c0,0.9-0.1,2.1-0.1,3.7V16c0,1.6,0,2.9,0.1,3.7c0.1,1.5,0.2,2.6,0.5,3.3c0.5,1.2,1.4,2.1,2.6,2.6
	c0.7,0.2,1.8,0.4,3.3,0.5c0.9,0,2.1,0.1,3.7,0.1h1.9c1.6,0,2.9,0,3.7-0.1c1.5-0.1,2.6-0.2,3.3-0.5C24.3,25,25.2,24.2,25.7,23z
	 M15.1,8.1c1.2,0,2.4,0.3,3.5,0.9c1.1,0.6,1.9,1.5,2.5,2.5c0.6,1.1,0.9,2.2,0.9,3.5c0,1.2-0.3,2.4-0.9,3.5c-0.6,1.1-1.5,1.9-2.5,2.5
	c-1.1,0.6-2.2,0.9-3.5,0.9s-2.4-0.3-3.5-0.9c-1.1-0.6-1.9-1.5-2.5-2.5c-0.6-1.1-0.9-2.2-0.9-3.5c0-1.2,0.3-2.4,0.9-3.5
	c0.6-1.1,1.5-1.9,2.5-2.5C12.7,8.4,13.9,8.1,15.1,8.1z M15.1,19.5c1.2,0,2.3-0.4,3.2-1.3c0.9-0.9,1.3-1.9,1.3-3.2
	c0-1.2-0.4-2.3-1.3-3.2c-0.9-0.9-1.9-1.3-3.2-1.3s-2.3,0.4-3.2,1.3c-0.9,0.9-1.3,1.9-1.3,3.2c0,1.2,0.4,2.3,1.3,3.2
	C12.8,19.1,13.9,19.5,15.1,19.5z M24,7.8c0-0.4-0.2-0.8-0.5-1.1c-0.3-0.3-0.7-0.5-1.1-0.5c-0.4,0-0.8,0.2-1.1,0.5
	c-0.3,0.3-0.5,0.7-0.5,1.1c0,0.4,0.2,0.8,0.5,1.1c0.3,0.3,0.7,0.5,1.1,0.5c0.4,0,0.8-0.2,1.1-0.5C23.8,8.6,24,8.2,24,7.8z"/>
</svg>
