<svg id="Capa_1" enable-background="new 0 0 512 512" height="512" viewBox="0 0 512 512" width="512" xmlns="http://www.w3.org/2000/svg"><g><path d="m301 171h30v170h-30z"/><path d="m181 171h30v170h-30z"/><path d="m256 0c-141.159 0-256 114.841-256 256s114.841 256 256 256 256-114.841 256-256-114.841-256-256-256zm-15 356c0 8.284-6.716 15-15 15h-60c-8.284 0-15-6.716-15-15v-200c0-8.284 6.716-15 15-15h60c8.284 0 15 6.716 15 15zm120 0c0 8.284-6.716 15-15 15h-60c-8.284 0-15-6.716-15-15v-200c0-8.284 6.716-15 15-15h60c8.284 0 15 6.716 15 15z"/></g></svg>